<?xml version="1.0" standalone="no"?>
<!DOCTYPE svg PUBLIC "-//W3C//DTD SVG 20010904//EN"
 "http://www.w3.org/TR/2001/REC-SVG-20010904/DTD/svg10.dtd">
<svg version="1.0" xmlns="http://www.w3.org/2000/svg"
 width="512.000000pt" height="512.000000pt" viewBox="0 0 512.000000 512.000000"
 preserveAspectRatio="xMidYMid meet">

<g transform="translate(0.000000,512.000000) scale(0.100000,-0.100000)"
fill="#000000" stroke="none">
<path d="M1058 4114 c-184 -44 -334 -194 -383 -381 -8 -31 -15 -74 -15 -94 0
-35 -2 -37 -47 -49 -112 -28 -224 -109 -292 -211 -53 -80 -79 -166 -87 -293
l-7 -104 -90 -4 c-83 -4 -92 -6 -113 -32 l-24 -27 0 -359 0 -359 24 -27 c21
-26 30 -28 113 -32 l90 -4 7 -103 c10 -155 38 -235 115 -333 66 -83 180 -156
276 -176 30 -6 31 -9 41 -85 38 -282 300 -483 577 -443 171 25 314 132 391
292 l41 85 3 383 3 382 879 0 879 0 3 -382 3 -383 41 -85 c156 -324 568 -398
819 -147 90 90 155 231 155 338 0 34 3 38 33 44 98 21 212 93 278 177 77 98
105 178 115 333 l7 103 90 4 c83 4 92 6 113 32 l24 27 0 359 0 359 -24 27
c-21 26 -30 28 -113 32 l-90 4 -7 104 c-8 127 -34 213 -87 293 -68 101 -180
183 -289 211 l-46 11 -10 79 c-30 222 -203 401 -426 441 -217 39 -441 -81
-542 -291 l-41 -85 -3 -382 -3 -383 -879 0 -879 0 -3 383 -3 382 -41 85 c-107
222 -346 340 -576 284z m186 -169 c94 -15 195 -97 239 -193 l22 -47 0 -1145 0
-1145 -22 -47 c-80 -174 -289 -250 -461 -166 -66 31 -136 106 -164 175 l-23
58 0 1125 0 1125 23 58 c28 69 98 144 164 176 49 23 128 40 163 35 11 -1 38
-6 59 -9z m2806 -7 c94 -28 183 -114 217 -211 17 -49 18 -117 18 -1172 l0
-1120 -23 -58 c-92 -226 -395 -282 -561 -102 -23 25 -53 68 -64 93 l-22 47 0
1145 0 1145 22 47 c72 157 246 235 413 186z m-3390 -1377 l0 -870 -51 21 c-63
27 -129 90 -166 159 l-28 54 0 635 0 635 28 53 c36 69 97 128 161 157 28 13
52 24 54 24 1 1 2 -390 2 -868z m3945 783 c24 -23 56 -66 72 -95 l28 -54 0
-635 0 -635 -28 -54 c-37 -69 -103 -132 -166 -159 l-51 -21 0 869 0 869 51
-21 c28 -12 70 -40 94 -64z m-4375 -784 l0 -240 -30 0 -30 0 0 240 0 240 30 0
30 0 0 -240z m1610 0 l0 -240 -80 0 -80 0 0 240 0 240 80 0 80 0 0 -240z
m1270 0 l0 -240 -550 0 -550 0 0 240 0 240 550 0 550 0 0 -240z m330 0 l0
-240 -80 0 -80 0 0 240 0 240 80 0 80 0 0 -240z m1510 0 l0 -240 -30 0 -30 0
0 240 0 240 30 0 30 0 0 -240z"/>
</g>
</svg>
