<?xml version="1.0" standalone="no"?>
<!DOCTYPE svg PUBLIC "-//W3C//DTD SVG 20010904//EN"
 "http://www.w3.org/TR/2001/REC-SVG-20010904/DTD/svg10.dtd">
<svg version="1.0" xmlns="http://www.w3.org/2000/svg"
 width="512.000000pt" height="512.000000pt" viewBox="0 0 512.000000 512.000000"
 preserveAspectRatio="xMidYMid meet">

<g transform="translate(0.000000,512.000000) scale(0.100000,-0.100000)"
fill="#000000" stroke="none">
<path d="M591 5106 c-52 -29 -50 -6 -51 -823 l0 -763 -230 0 c-251 0 -275 -4
-298 -55 -17 -38 -17 -3372 0 -3410 27 -59 -152 -55 2548 -55 2700 0 2521 -4
2548 55 9 20 12 425 12 1706 0 1827 3 1721 -55 1747 -18 8 -99 12 -255 12
l-230 0 0 760 c0 826 2 802 -55 828 -40 19 -3900 17 -3934 -2z m3789 -886 l0
-700 -695 0 c-755 0 -738 1 -763 -55 -15 -33 -15 -57 0 -90 26 -57 -16 -55
1033 -55 l965 0 0 -400 0 -400 -2360 0 -2360 0 0 400 0 400 965 0 c726 0 971
3 990 12 47 21 67 82 43 133 -25 56 -8 55 -763 55 l-695 0 0 700 0 700 1820 0
1820 0 0 -700z m-2880 -2720 l0 -820 -650 0 -650 0 0 820 0 820 650 0 650 0 0
-820z m960 -240 l0 -1060 -380 0 -380 0 0 1060 0 1060 380 0 380 0 0 -1060z
m960 0 l0 -1060 -380 0 -380 0 0 1060 0 1060 380 0 380 0 0 -1060z m1500 240
l0 -820 -650 0 -650 0 0 820 0 820 650 0 650 0 0 -820z m-3420 -1160 l0 -140
-650 0 -650 0 0 140 0 140 650 0 650 0 0 -140z m3420 0 l0 -140 -650 0 -650 0
0 140 0 140 650 0 650 0 0 -140z"/>
<path d="M1411 4709 c-25 -5 -78 -24 -119 -44 -190 -90 -305 -306 -273 -515
56 -371 498 -558 775 -328 91 75 158 227 160 365 1 72 0 75 -32 104 l-32 29
-146 0 c-159 0 -191 -8 -212 -55 -16 -34 -15 -60 2 -94 20 -38 55 -51 136 -51
83 0 86 -7 40 -87 -44 -77 -102 -108 -200 -108 -87 0 -150 25 -210 85 -58 58
-84 122 -84 210 0 89 26 153 87 211 63 62 119 84 212 84 71 0 87 -4 145 -34
55 -29 69 -32 99 -25 70 18 98 108 49 161 -72 77 -255 120 -397 92z"/>
<path d="M2208 4704 c-34 -18 -48 -43 -48 -85 0 -25 29 -77 123 -218 l122
-186 5 -218 5 -219 33 -29 c18 -16 44 -29 58 -29 33 0 81 25 94 49 6 12 10
103 10 223 l0 203 127 194 c137 210 147 235 106 288 -26 36 -73 50 -113 33
-24 -10 -54 -47 -122 -151 -49 -77 -93 -139 -97 -139 -3 1 -42 57 -86 126 -44
69 -93 136 -108 150 -32 27 -69 30 -109 8z"/>
<path d="M3268 4704 c-15 -8 -34 -27 -43 -43 -15 -31 -155 -785 -155 -840 0
-71 92 -116 155 -75 32 21 38 42 81 284 20 113 37 206 38 208 2 1 31 -96 66
-215 35 -120 70 -230 78 -244 23 -41 67 -62 115 -56 72 10 83 30 157 289 l67
233 11 -55 c6 -30 27 -136 46 -235 31 -158 38 -183 61 -202 54 -47 148 -18
160 50 6 33 -135 795 -157 851 -14 35 -63 66 -103 66 -37 0 -92 -33 -105 -62
-6 -13 -42 -133 -80 -267 -38 -134 -71 -245 -73 -247 -2 -2 -32 94 -66 214
-86 292 -96 319 -135 343 -37 23 -81 24 -118 3z"/>
<path d="M2511 3506 c-87 -48 -50 -186 49 -186 51 0 100 49 100 99 0 75 -83
124 -149 87z"/>
<path d="M854 2004 c-17 -8 -128 -113 -248 -233 -213 -215 -216 -218 -216
-260 0 -60 41 -101 101 -101 42 0 45 3 260 217 120 119 225 231 234 250 39 82
-49 168 -131 127z"/>
<path d="M868 1282 l-228 -228 0 -46 c0 -64 34 -98 98 -98 l46 0 228 228 228
228 0 46 c0 36 -6 51 -26 72 -21 20 -36 26 -72 26 l-46 0 -228 -228z"/>
<path d="M4274 2004 c-17 -8 -128 -113 -248 -233 -213 -215 -216 -218 -216
-260 0 -60 41 -101 101 -101 42 0 45 3 260 217 120 119 225 231 234 250 39 82
-49 168 -131 127z"/>
<path d="M4288 1282 l-228 -228 0 -46 c0 -64 34 -98 98 -98 l46 0 228 228 228
228 0 46 c0 64 -34 98 -98 98 l-46 0 -228 -228z"/>
</g>
</svg>
