<?xml version="1.0" standalone="no"?>
<!DOCTYPE svg PUBLIC "-//W3C//DTD SVG 20010904//EN"
 "http://www.w3.org/TR/2001/REC-SVG-20010904/DTD/svg10.dtd">
<svg version="1.0" xmlns="http://www.w3.org/2000/svg"
 width="512.000000pt" height="512.000000pt" viewBox="0 0 512.000000 512.000000"
 preserveAspectRatio="xMidYMid meet">

<g transform="translate(0.000000,512.000000) scale(0.100000,-0.100000)"
fill="#000000" stroke="none">
<path d="M2482 5104 c-196 -35 -363 -119 -506 -254 -388 -366 -423 -952 -81
-1363 114 -138 317 -267 500 -319 69 -20 103 -23 255 -23 152 0 185 3 255 23
106 30 264 108 346 170 l66 50 48 -37 49 -37 1 -315 c2 -420 32 -653 119 -932
14 -42 20 -77 15 -77 -6 0 -42 5 -81 12 l-70 11 -45 71 c-58 91 -219 250 -303
300 -206 122 -474 175 -747 147 -62 -6 -119 -14 -127 -17 -8 -3 -32 20 -63 63
-181 247 -455 422 -780 499 -102 24 -130 26 -503 34 -217 4 -411 11 -430 15
-44 8 -84 -7 -105 -38 -23 -36 -71 -236 -97 -405 -33 -212 -32 -579 1 -765 40
-229 77 -345 191 -614 165 -384 595 -1215 660 -1275 17 -16 41 -28 55 -28 54
0 307 198 416 326 68 80 152 206 189 285 l30 65 114 -38 c435 -145 896 -180
1436 -108 337 46 672 130 1015 257 276 102 586 247 606 284 31 59 49 482 29
677 -57 545 -220 925 -610 1427 -214 275 -253 347 -402 750 -117 315 -157 382
-275 463 -49 33 -57 45 -88 120 -172 421 -638 678 -1083 596z m403 -184 c261
-83 461 -275 546 -523 137 -399 -46 -832 -429 -1015 -340 -161 -739 -74 -983
216 -380 452 -169 1155 396 1320 103 30 108 31 260 27 112 -2 154 -7 210 -25z
m867 -997 c173 -466 219 -555 427 -823 191 -246 285 -389 375 -568 171 -343
248 -737 225 -1152 -4 -80 -8 -160 -8 -177 -1 -30 -6 -36 -68 -67 -238 -119
-653 -270 -948 -344 -748 -188 -1372 -177 -1942 35 -120 45 -125 46 -157 31
-27 -14 -37 -28 -60 -92 -67 -184 -252 -420 -419 -534 l-46 -32 -72 127 c-189
331 -516 1013 -606 1263 -133 368 -151 846 -47 1300 l14 65 318 -2 c356 -3
460 -12 613 -53 204 -56 377 -155 519 -299 82 -82 90 -95 195 -301 116 -226
135 -250 187 -237 34 9 56 31 64 64 5 19 -6 51 -42 124 -26 54 -44 102 -40
106 4 4 101 8 214 7 196 0 212 -2 295 -27 223 -69 372 -183 488 -375 28 -45
58 -86 68 -91 9 -5 65 -19 124 -30 226 -44 317 -17 317 91 0 17 -16 82 -35
143 -46 147 -72 260 -97 418 -18 112 -21 187 -24 497 -2 201 -6 375 -9 386 -2
12 -36 47 -75 79 l-69 57 38 56 c103 152 157 312 168 495 l6 108 19 -30 c11
-17 51 -115 90 -218z"/>
<path d="M2500 4597 c-209 -71 -341 -252 -341 -467 0 -142 46 -253 146 -353
87 -87 228 -147 345 -147 116 0 260 60 344 145 158 157 196 377 99 573 -35 71
-142 181 -208 214 -123 63 -266 76 -385 35z m297 -178 c68 -33 119 -85 155
-158 34 -69 33 -196 -3 -271 -96 -201 -360 -253 -521 -102 -72 67 -103 138
-103 237 0 66 5 90 26 136 82 174 273 242 446 158z"/>
<path d="M1773 1790 c-56 -52 -38 -99 76 -189 314 -248 662 -420 943 -466 172
-28 352 -15 484 35 77 28 168 76 184 95 24 29 18 85 -14 111 -15 13 -35 24
-44 24 -9 0 -54 -18 -98 -39 -45 -22 -110 -47 -145 -57 -77 -20 -241 -22 -349
-4 -249 42 -577 207 -856 431 -109 87 -140 97 -181 59z"/>
</g>
</svg>
