<?xml version="1.0" standalone="no"?>
<!DOCTYPE svg PUBLIC "-//W3C//DTD SVG 20010904//EN"
 "http://www.w3.org/TR/2001/REC-SVG-20010904/DTD/svg10.dtd">
<svg version="1.0" xmlns="http://www.w3.org/2000/svg"
 width="512.000000pt" height="512.000000pt" viewBox="0 0 512.000000 512.000000"
 preserveAspectRatio="xMidYMid meet">

<g transform="translate(0.000000,512.000000) scale(0.100000,-0.100000)"
fill="#000000" stroke="none">
<path d="M2700 5069 c-423 -54 -502 -70 -625 -128 -220 -103 -293 -182 -622
-676 -603 -906 -1038 -1705 -1272 -2340 -29 -77 -69 -185 -91 -240 -136 -350
-115 -610 65 -804 111 -119 262 -200 462 -246 59 -14 149 -35 198 -47 200 -47
391 -114 621 -218 443 -201 782 -300 1209 -351 166 -20 597 -17 760 5 349 48
652 133 961 270 173 77 399 200 436 236 77 77 14 217 -95 214 -32 -2 -73 -19
-171 -74 -357 -201 -741 -329 -1156 -386 -156 -22 -555 -25 -710 -6 -409 50
-698 135 -1133 331 -280 126 -462 187 -767 256 -184 42 -269 73 -351 128 -172
114 -203 303 -95 574 19 49 59 156 89 238 211 580 588 1290 1120 2110 154 238
376 563 425 623 68 83 209 173 323 206 58 17 806 116 874 116 85 0 199 -83
224 -164 21 -66 81 -446 75 -473 -19 -79 -82 -141 -161 -158 -22 -4 -122 15
-340 65 -169 39 -329 78 -355 87 -37 12 -54 13 -81 4 -76 -25 -71 -10 -258
-730 -169 -653 -172 -665 -158 -705 38 -110 195 -115 238 -8 6 15 76 279 156
586 79 307 147 561 150 564 3 3 99 -16 213 -43 371 -87 378 -88 459 -77 202
28 359 180 393 381 11 64 9 85 -20 253 -47 278 -59 327 -93 398 -83 168 -274
283 -466 279 -31 -1 -225 -23 -431 -50z"/>
<path d="M2983 2739 c-429 -41 -822 -309 -1142 -779 -142 -208 -160 -254 -127
-319 29 -55 101 -82 158 -58 40 17 57 37 147 177 251 391 558 635 889 706 95
20 280 22 382 5 211 -37 468 -153 644 -290 32 -25 72 -56 89 -68 54 -39 134
-27 182 28 40 45 179 140 276 189 153 76 282 111 469 125 93 8 121 20 150 68
25 41 25 83 0 124 -33 55 -59 65 -162 64 -250 -3 -523 -96 -754 -256 l-91 -63
-99 65 c-250 164 -511 260 -770 282 -65 6 -126 10 -134 10 -8 -1 -56 -6 -107
-10z"/>
<path d="M4241 1319 c-13 -5 -55 -38 -92 -73 -209 -198 -471 -299 -774 -299
-147 0 -261 18 -417 64 -89 26 -108 29 -140 20 -54 -17 -88 -62 -88 -118 0
-90 40 -122 210 -167 222 -59 474 -75 675 -42 284 47 589 209 755 399 65 75
46 176 -40 211 -46 18 -55 19 -89 5z"/>
</g>
</svg>
