<?xml version="1.0" standalone="no"?>
<!DOCTYPE svg PUBLIC "-//W3C//DTD SVG 20010904//EN"
 "http://www.w3.org/TR/2001/REC-SVG-20010904/DTD/svg10.dtd">
<svg version="1.0" xmlns="http://www.w3.org/2000/svg"
 width="512.000000pt" height="512.000000pt" viewBox="0 0 512.000000 512.000000"
 preserveAspectRatio="xMidYMid meet">

<g transform="translate(0.000000,512.000000) scale(0.100000,-0.100000)"
fill="#000000" stroke="none">
<path d="M2340 5109 c-496 -40 -1002 -245 -1395 -564 -122 -99 -334 -318 -426
-440 -241 -322 -403 -686 -474 -1069 -123 -667 15 -1345 387 -1898 193 -288
487 -573 777 -752 543 -336 1186 -456 1817 -341 675 125 1268 515 1657 1092
502 743 572 1716 181 2528 l-52 110 143 145 c79 80 148 158 154 173 23 60 8
119 -41 164 -12 12 -140 73 -283 135 l-260 114 -68 195 c-110 317 -119 339
-144 370 -30 35 -88 54 -140 44 -32 -6 -63 -31 -199 -166 l-161 -160 -109 55
c-421 210 -895 303 -1364 265z m525 -314 c240 -36 491 -112 669 -202 l56 -28
-204 -204 -203 -203 -94 30 c-451 144 -950 95 -1363 -135 -255 -143 -500 -383
-648 -637 -228 -389 -289 -892 -162 -1334 76 -266 224 -516 426 -721 325 -329
759 -511 1218 -511 552 0 1069 269 1395 725 78 109 184 317 225 442 109 331
117 706 20 1030 l-27 91 207 207 207 207 27 -57 c82 -180 152 -422 182 -631
20 -140 23 -444 5 -574 -60 -437 -228 -833 -492 -1156 -660 -808 -1787 -1060
-2724 -610 -1028 493 -1527 1668 -1169 2748 110 331 290 623 539 874 189 191
354 310 590 430 267 135 527 207 855 238 84 8 364 -4 465 -19z m1325 -240 l41
-119 -359 -359 -359 -359 -31 144 -31 143 342 342 c188 189 345 339 348 335 4
-4 26 -61 49 -127z m378 -396 c64 -28 121 -55 127 -60 11 -11 -652 -679 -674
-679 -20 0 -285 72 -294 80 -8 7 701 710 716 710 5 0 61 -23 125 -51z m-1732
-213 c88 -18 238 -67 301 -100 l48 -24 38 -178 39 -179 -97 -93 -96 -93 -27
19 c-52 37 -172 92 -249 114 -67 20 -101 23 -243 23 -164 0 -166 0 -268 -36
-372 -131 -605 -454 -605 -839 0 -338 186 -640 488 -792 108 -55 211 -80 349
-86 277 -11 476 66 666 257 134 135 211 277 246 450 20 102 15 291 -11 391
-19 70 -81 213 -114 258 l-20 29 94 93 94 94 186 -50 185 -49 31 -74 c70 -169
106 -392 95 -590 -37 -654 -494 -1182 -1141 -1317 -123 -26 -402 -26 -528 -1
-506 102 -916 461 -1076 942 -55 165 -66 242 -66 445 0 141 4 205 18 270 95
445 368 797 772 998 132 66 299 115 465 136 68 8 356 -4 426 -18z m-146 -817
c25 -6 71 -22 103 -36 l58 -26 -214 -216 c-246 -247 -256 -263 -221 -349 26
-63 70 -92 140 -92 66 0 63 -2 315 247 l196 194 25 -58 c111 -249 28 -549
-195 -707 -99 -69 -183 -98 -306 -104 -63 -3 -125 0 -160 8 -196 42 -372 207
-433 404 -25 82 -29 213 -9 296 50 207 219 381 421 434 65 17 216 20 280 5z"/>
</g>
</svg>
